  0
SECTION
  2
HEADER
  9
$ACADVER
  1
AC1027
  9
$INSUNITS
 70
4
  0
ENDSEC
  0
SECTION
  2
TABLES
  0
TABLE
  2
LAYER
 70
5
  0
LAYER
  2
FRAME
 70
0
 62
7
  6
CONTINUOUS
  0
LAYER
  2
GLASS
 70
0
 62
5
  6
CONTINUOUS
  0
LAYER
  2
DIMENSIONS
 70
0
 62
3
  6
CONTINUOUS
  0
LAYER
  2
TEXT
 70
0
 62
7
  6
CONTINUOUS
  0
LAYER
  2
SYMBOLS
 70
0
 62
1
  6
CONTINUOUS
  0
ENDTAB
  0
ENDSEC
  0
SECTION
  2
ENTITIES
  0
LINE
  8
FRAME
 10
0.000000
 20
0.000000
 30
0.000000
 11
900.000000
 21
0.000000
 31
0.000000
  0
LINE
  8
FRAME
 10
900.000000
 20
0.000000
 30
0.000000
 11
900.000000
 21
2100.000000
 31
0.000000
  0
LINE
  8
FRAME
 10
900.000000
 20
2100.000000
 30
0.000000
 11
0.000000
 21
2100.000000
 31
0.000000
  0
LINE
  8
FRAME
 10
0.000000
 20
2100.000000
 30
0.000000
 11
0.000000
 21
0.000000
 31
0.000000
  0
LINE
  8
FRAME
 10
67.000000
 20
67.000000
 30
0.000000
 11
833.000000
 21
67.000000
 31
0.000000
  0
LINE
  8
FRAME
 10
833.000000
 20
67.000000
 30
0.000000
 11
833.000000
 21
2033.000000
 31
0.000000
  0
LINE
  8
FRAME
 10
833.000000
 20
2033.000000
 30
0.000000
 11
67.000000
 21
2033.000000
 31
0.000000
  0
LINE
  8
FRAME
 10
67.000000
 20
2033.000000
 30
0.000000
 11
67.000000
 21
67.000000
 31
0.000000
  0
LINE
  8
SYMBOLS
 10
67.000000
 20
67.000000
 30
0.000000
 11
833.000000
 21
2033.000000
 31
0.000000
  0
TEXT
  8
TEXT
 10
450.000000
 20
1050.000000
 30
0.000000
 40
91.920000
  1
DR
 72
1
 73
2
 11
450.000000
 21
1050.000000
 31
0.000000
  0
DIMENSION
  8
DIMENSIONS
 10
450.000000
 20
-80.000000
 30
0.000000
 13
0.000000
 23
0.000000
 33
0.000000
 14
900.000000
 24
0.000000
 34
0.000000
 70
0
 50
0.000000
  0
DIMENSION
  8
DIMENSIONS
 10
980.000000
 20
1050.000000
 30
0.000000
 13
900.000000
 23
0.000000
 33
0.000000
 14
900.000000
 24
2100.000000
 34
0.000000
 70
0
 50
90.000000
  0
TEXT
  8
TEXT
 10
0.000000
 20
-240.000000
 30
0.000000
 40
40.000000
  1
D100 - Door A
  0
TEXT
  8
TEXT
 10
0.000000
 20
-290.000000
 30
0.000000
 40
25.000000
  1
900 x 2100 mm
  0
ENDSEC
  0
EOF
