ply
format ascii 1.0
comment Exported from Pointcloud Workspace
element vertex 64
property double x
property double y
property double z
property uchar red
property uchar green
property uchar blue
property float intensity
property uchar classification
end_header
100000 450000 0 159 100 70 0.4577706456184387 2
100001 450000 1 159 100 70 0.4577706456184387 6
100002 450000 0 159 100 70 0.4577706456184387 2
100003 450000 1 159 100 70 0.4577706456184387 6
100004 450000 0 159 100 70 0.4577706456184387 2
100005 450000 1 159 100 70 0.4577706456184387 6
100006 450000 0 159 100 70 0.4577706456184387 2
100007 450000 1 159 100 70 0.4577706456184387 6
100000 450001 0 159 100 70 0.4577706456184387 2
100001 450001 1 159 100 70 0.4577706456184387 6
100002 450001 0 159 100 70 0.4577706456184387 2
100003 450001 1 159 100 70 0.4577706456184387 6
100004 450001 0 159 100 70 0.4577706456184387 2
100005 450001 1 159 100 70 0.4577706456184387 6
100006 450001 0 159 100 70 0.4577706456184387 2
100007 450001 1 159 100 70 0.4577706456184387 6
100000 450002 0 159 100 70 0.4577706456184387 2
100001 450002 1 159 100 70 0.4577706456184387 6
100002 450002 0 159 100 70 0.4577706456184387 2
100003 450002 1 159 100 70 0.4577706456184387 6
100004 450002 0 159 100 70 0.4577706456184387 2
100005 450002 1 159 100 70 0.4577706456184387 6
100006 450002 0 159 100 70 0.4577706456184387 2
100007 450002 1 159 100 70 0.4577706456184387 6
100000 450003 0 159 100 70 0.4577706456184387 2
100001 450003 1 159 100 70 0.4577706456184387 6
100002 450003 0 159 100 70 0.4577706456184387 2
100003 450003 1 159 100 70 0.4577706456184387 6
100004 450003 0 159 100 70 0.4577706456184387 2
100005 450003 1 159 100 70 0.4577706456184387 6
100006 450003 0 159 100 70 0.4577706456184387 2
100007 450003 1 159 100 70 0.4577706456184387 6
100000 450004 0 159 100 70 0.4577706456184387 2
100001 450004 1 159 100 70 0.4577706456184387 6
100002 450004 0 159 100 70 0.4577706456184387 2
100003 450004 1 159 100 70 0.4577706456184387 6
100004 450004 0 159 100 70 0.4577706456184387 2
100005 450004 1 159 100 70 0.4577706456184387 6
100006 450004 0 159 100 70 0.4577706456184387 2
100007 450004 1 159 100 70 0.4577706456184387 6
100000 450005 0 159 100 70 0.4577706456184387 2
100001 450005 1 159 100 70 0.4577706456184387 6
100002 450005 0 159 100 70 0.4577706456184387 2
100003 450005 1 159 100 70 0.4577706456184387 6
100004 450005 0 159 100 70 0.4577706456184387 2
100005 450005 1 159 100 70 0.4577706456184387 6
100006 450005 0 159 100 70 0.4577706456184387 2
100007 450005 1 159 100 70 0.4577706456184387 6
100000 450006 0 159 100 70 0.4577706456184387 2
100001 450006 1 159 100 70 0.4577706456184387 6
100002 450006 0 159 100 70 0.4577706456184387 2
100003 450006 1 159 100 70 0.4577706456184387 6
100004 450006 0 159 100 70 0.4577706456184387 2
100005 450006 1 159 100 70 0.4577706456184387 6
100006 450006 0 159 100 70 0.4577706456184387 2
100007 450006 1 159 100 70 0.4577706456184387 6
100000 450007 0 159 100 70 0.4577706456184387 2
100001 450007 1 159 100 70 0.4577706456184387 6
100002 450007 0 159 100 70 0.4577706456184387 2
100003 450007 1 159 100 70 0.4577706456184387 6
100004 450007 0 159 100 70 0.4577706456184387 2
100005 450007 1 159 100 70 0.4577706456184387 6
100006 450007 0 159 100 70 0.4577706456184387 2
100007 450007 1 159 100 70 0.4577706456184387 6
